HIERARCHY
ROOT Hips
{
    OFFSET 0.000000 0.000000 0.000000
    CHANNELS 6 Xposition Yposition Zposition Zrotation Xrotation Yrotation
    JOINT Spine
    {
        OFFSET -0.000000 7.761268 0.000000
        CHANNELS 3 Zrotation Xrotation Yrotation
        JOINT Spine1
        {
            OFFSET -0.000000 24.785763 0.000000
            CHANNELS 3 Zrotation Xrotation Yrotation
            JOINT Neck
            {
                OFFSET -0.000000 24.683973 2.243998
                CHANNELS 3 Zrotation Xrotation Yrotation
                JOINT Head
                {
                    OFFSET -0.000000 13.250945 -1.892992
                    CHANNELS 3 Zrotation Xrotation Yrotation
                    End Site
                    {
                        OFFSET -0.000000 23.662401 0.000000
                    }
                }
            }
            JOINT LeftShoulder
            {
                OFFSET 3.794134 23.444212 -0.177979
                CHANNELS 3 Zrotation Xrotation Yrotation
                JOINT LeftArm
                {
                    OFFSET 9.211075 0.000000 0.000000
                    CHANNELS 3 Zrotation Xrotation Yrotation
                    JOINT LeftForeArm
                    {
                        OFFSET 34.352840 0.000000 0.000000
                        CHANNELS 3 Zrotation Xrotation Yrotation
                        JOINT LeftHand
                        {
                            OFFSET 25.460636 0.000000 0.000000
                            CHANNELS 3 Zrotation Xrotation Yrotation
                            End Site
                            {
                                OFFSET 14.197442 0.000000 0.000000
                            }
                        }
                    }
                }
            }
            JOINT RightShoulder
            {
                OFFSET -3.767389 23.444212 -0.177979
                CHANNELS 3 Zrotation Xrotation Yrotation
                JOINT RightArm
                {
                    OFFSET -9.211075 0.000000 0.000000
                    CHANNELS 3 Zrotation Xrotation Yrotation
                    JOINT RightForeArm
                    {
                        OFFSET -34.352840 0.000000 0.000000
                        CHANNELS 3 Zrotation Xrotation Yrotation
                        JOINT RightHand
                        {
                            OFFSET -25.460636 0.000000 0.000000
                            CHANNELS 3 Zrotation Xrotation Yrotation
                            End Site
                            {
                                OFFSET -14.197442 0.000000 0.000000
                            }
                        }
                    }
                }
            }
        }
    }
    JOINT LeftUpLeg
    {
        OFFSET 9.464960 0.000000 0.000000
        CHANNELS 3 Zrotation Xrotation Yrotation
        JOINT LeftLeg
        {
            OFFSET -0.000000 -36.073700 0.000000
            CHANNELS 3 Zrotation Xrotation Yrotation
            JOINT LeftFoot
            {
                OFFSET -0.000000 -40.808823 0.000000
                CHANNELS 3 Zrotation Xrotation Yrotation
                JOINT LeftToeBase
                {
                    OFFSET -0.000000 -6.152224 14.197442
                    CHANNELS 3 Zrotation Xrotation Yrotation
                    End Site
                    {
                        OFFSET -0.000000 0.000000 3.785984
                    }
                }
            }
        }
    }
    JOINT RightUpLeg
    {
        OFFSET -9.464960 0.000000 0.000000
        CHANNELS 3 Zrotation Xrotation Yrotation
        JOINT RightLeg
        {
            OFFSET -0.000000 -36.073700 0.000000
            CHANNELS 3 Zrotation Xrotation Yrotation
            JOINT RightFoot
            {
                OFFSET -0.000000 -40.808823 0.000000
                CHANNELS 3 Zrotation Xrotation Yrotation
                JOINT RightToeBase
                {
                    OFFSET -0.000000 -6.152224 14.197442
                    CHANNELS 3 Zrotation Xrotation Yrotation
                    End Site
                    {
                        OFFSET -0.000000 0.000000 3.785984
                    }
                }
            }
        }
    }
}
MOTION
Frames:    5
Frame Time:    0.004000
-22.614803    78.847534    -192.041199    0.087693    0.577711    13.270742    0.177274    -6.374756    0.178313    -1.995080    -2.920011    0.117897    1.399321    19.225723    -3.199294    1.722811    4.709165    -3.115059    13.126020    0.151180    -7.358194    -10.127250    -4.564262    -5.765373    -0.379339    3.436096    -0.563381    -4.502586    3.482708    -1.235363    -12.735938    1.064223    -0.104779    14.175757    -1.403000    -0.912030    -0.035178    2.744028    -2.750766    1.109505    2.783350    4.150128    -1.968125    4.925393    -0.189166    1.275087    -1.409766    -4.172091    1.132874    -4.500451    12.573753    0.000000    0.000000    0.000000    0.073463    12.285560    0.754750    0.663888    -12.289043    0.483104    -0.046371    -1.907599    -32.091225    0.000000    0.000000    0.000000    
-22.619547    78.848267    -192.044449    0.091464    0.588609    13.264544    0.166575    -6.384180    0.181748    -1.993217    -2.916309    0.121818    1.408610    19.223318    -3.201449    1.711631    4.701302    -3.118101    13.137071    0.137612    -7.353937    -10.146203    -4.555079    -5.757333    -0.362805    3.389648    -0.565048    -4.517627    3.436379    -1.232077    -12.734900    1.061755    -0.108072    14.180096    -1.412422    -0.914269    -0.033484    2.749373    -2.752318    1.088245    2.787976    4.150263    -1.973522    4.912044    -0.211352    1.281656    -1.404102    -4.190621    1.099362    -4.510268    12.628080    0.000000    0.000000    0.000000    0.067415    12.273417    0.753228    0.666328    -12.295769    0.500897    -0.022090    -1.902023    -32.102543    0.000000    0.000000    0.000000    
-22.625143    78.849236    -192.042328    0.096081    0.579651    13.257229    0.157296    -6.373714    0.185140    -1.984777    -2.921795    0.125862    1.425223    19.218288    -3.200086    1.681232    4.713027    -3.119550    13.126366    0.154808    -7.346026    -10.142513    -4.507360    -5.762097    -0.337931    3.318976    -0.559972    -4.568069    3.366194    -1.227039    -12.736306    1.063015    -0.107173    14.185777    -1.408167    -0.919065    -0.041287    2.745384    -2.752981    1.098173    2.784104    4.146195    -1.969666    4.939596    -0.211832    1.274840    -1.437920    -4.164517    1.118846    -4.479744    12.604457    0.000000    0.000000    0.000000    0.069030    12.287441    0.754623    0.663519    -12.300750    0.504404    -0.094120    -1.895314    -32.077488    0.000000    0.000000    0.000000    
-22.631622    78.848000    -192.046005    0.094825    0.583250    13.251611    0.158653    -6.372800    0.186320    -1.994267    -2.923495    0.126792    1.435525    19.205896    -3.190485    1.679101    4.721006    -3.109784    13.137213    0.142026    -7.343681    -10.154078    -4.467440    -5.744694    -0.321681    3.264488    -0.562814    -4.585406    3.312503    -1.240221    -12.726797    1.060594    -0.106701    14.180796    -1.454880    -0.912043    -0.025760    2.762753    -2.771133    1.070026    2.800872    4.150577    -1.970991    4.924109    -0.208838    1.282937    -1.417277    -4.152810    1.096034    -4.503612    12.601148    0.000000    0.000000    0.000000    0.070919    12.263670    0.652642    0.687845    -12.274940    0.549175    -0.055091    -1.920687    -32.031403    0.000000    0.000000    0.000000    
-22.637537    78.848648    -192.043564    0.091632    0.577205    13.248145    0.159301    -6.373198    0.189903    -1.994228    -2.918839    0.130436    1.436942    19.193144    -3.185319    1.684790    4.745164    -3.104341    13.142178    0.145707    -7.343270    -10.183788    -4.370291    -5.721459    -0.240150    3.178165    -0.615029    -4.629354    3.225372    -1.201377    -12.725195    1.114749    -0.018905    14.188080    -1.473855    -1.022933    -0.035609    2.731529    -2.725092    1.075619    2.769377    4.123380    -1.955460    4.943532    -0.221902    1.269286    -1.444466    -4.150795    1.139829    -4.471175    12.613042    0.000000    0.000000    0.000000    0.077509    12.274167    0.658527    0.691277    -12.280619    0.594179    -0.069794    -1.898236    -32.069286    0.000000    0.000000    0.000000    
